<?xml version="1.0" encoding="UTF-8"?>
<svg xmlns="http://www.w3.org/2000/svg" xmlns:xlink="http://www.w3.org/1999/xlink" width="50px" height="50px" viewBox="0 0 50 50" version="1.1">
<g id="surface1">
<path style=" stroke:none;fill-rule:nonzero;fill:rgb(0%,0%,0%);fill-opacity:1;" d="M 49.539062 22.671875 L 26.007812 1.628906 C 25.96875 1.589844 25.925781 1.558594 25.875 1.527344 C 25.359375 1.035156 24.539062 1.011719 23.992188 1.496094 L 0.464844 22.539062 C -0.113281 23.050781 -0.152344 23.925781 0.351562 24.503906 C 0.628906 24.8125 1.007812 24.964844 1.390625 24.964844 C 1.71875 24.964844 2.046875 24.851562 2.316406 24.613281 L 6.550781 20.820312 L 6.550781 45.359375 C 6.550781 47.28125 8.113281 48.855469 10.046875 48.855469 C 10.078125 48.855469 10.101562 48.855469 10.128906 48.855469 C 10.160156 48.855469 10.183594 48.855469 10.210938 48.855469 L 17.472656 48.855469 C 19.28125 48.855469 20.753906 47.382812 20.753906 45.574219 L 20.753906 33.097656 C 20.753906 32.820312 20.980469 32.59375 21.257812 32.59375 L 28.753906 32.59375 C 29.03125 32.59375 29.257812 32.820312 29.257812 33.097656 L 29.257812 45.574219 C 29.257812 47.382812 30.730469 48.855469 32.539062 48.855469 L 39.964844 48.855469 C 41.917969 48.855469 43.460938 46.929688 43.460938 44.472656 L 43.460938 20.953125 L 47.699219 24.75 C 47.964844 24.984375 48.292969 25.097656 48.625 25.097656 C 49.003906 25.097656 49.382812 24.945312 49.660156 24.636719 C 50.15625 24.058594 50.105469 23.1875 49.539062 22.671875 Z M 40.671875 29.53125 L 40.671875 44.453125 C 40.671875 45.449219 40.179688 46.058594 39.953125 46.058594 L 32.527344 46.058594 C 32.25 46.058594 32.023438 45.832031 32.023438 45.554688 L 32.023438 33.097656 C 32.023438 31.289062 30.554688 29.820312 28.746094 29.820312 L 21.246094 29.820312 C 19.4375 29.820312 17.96875 31.289062 17.96875 33.097656 L 17.96875 45.574219 C 17.96875 45.851562 17.742188 46.078125 17.464844 46.078125 L 10.203125 46.078125 C 10.171875 46.078125 10.152344 46.078125 10.121094 46.078125 C 10.089844 46.078125 10.070312 46.078125 10.039062 46.078125 C 9.648438 46.078125 9.316406 45.757812 9.316406 45.359375 L 9.316406 18.332031 L 24.929688 4.386719 L 40.671875 18.464844 Z M 40.671875 29.53125 "/>
</g>
</svg>
